<svg width="34" height="32" viewBox="0 0 34 32" fill="white" xmlns="http://www.w3.org/2000/svg">
<path d="M5.66663 14.8574C5.0356 14.8574 4.52405 15.369 4.52405 16C4.52405 16.631 5.0356 17.1426 5.66663 17.1426V14.8574ZM28.3333 17.1426C28.9643 17.1426 29.4759 16.631 29.4759 16C29.4759 15.369 28.9643 14.8574 28.3333 14.8574V17.1426ZM5.66663 6.85742C5.0356 6.85742 4.52405 7.36897 4.52405 8C4.52405 8.63103 5.0356 9.14258 5.66663 9.14258V6.85742ZM28.3333 9.14258C28.9643 9.14258 29.4759 8.63103 29.4759 8C29.4759 7.36897 28.9643 6.85742 28.3333 6.85742V9.14258ZM5.66663 22.8574C5.0356 22.8574 4.52405 23.369 4.52405 24C4.52405 24.631 5.0356 25.1426 5.66663 25.1426V22.8574ZM28.3333 25.1426C28.9643 25.1426 29.4759 24.631 29.4759 24C29.4759 23.369 28.9643 22.8574 28.3333 22.8574V25.1426ZM5.66663 17.1426H28.3333V14.8574H5.66663V17.1426ZM5.66663 9.14258H28.3333V6.85742H5.66663V9.14258ZM5.66663 25.1426H28.3333V22.8574H5.66663V25.1426Z" fill="white"/>
</svg>
