<svg width="29" height="28" viewBox="0 0 29 28" fill="none" xmlns="http://www.w3.org/2000/svg">
<path d="M29 14.0856C29 6.30631 22.5081 4.4361e-07 14.5 4.4361e-07C6.49187 4.4361e-07 0 6.30631 0 14.0856C0 21.1161 5.30244 26.9433 12.2344 28V18.1572H8.55273V14.0856H12.2344V10.9823C12.2344 7.45214 14.3991 5.50217 17.7112 5.50217C19.2977 5.50217 20.957 5.77728 20.957 5.77728V9.24365H19.1286C17.3274 9.24365 16.7656 10.3294 16.7656 11.4433V14.0856H20.7871L20.1442 18.1572H16.7656V28C23.6976 26.9433 29 21.1161 29 14.0856Z" fill="#FFFCFC"/>
</svg>
