<svg width="28" height="28" viewBox="0 0 29 28" fill="none" xmlns="http://www.w3.org/2000/svg">
<path d="M29 2.05882V25.9412C29 26.4872 28.7753 27.0109 28.3754 27.397C27.9756 27.7831 27.4332 28 26.8676 28H2.13235C1.56682 28 1.02445 27.7831 0.624552 27.397C0.224658 27.0109 0 26.4872 0 25.9412L0 2.05882C0 1.51279 0.224658 0.98912 0.624552 0.603015C1.02445 0.216911 1.56682 0 2.13235 0L26.8676 0C27.4332 0 27.9756 0.216911 28.3754 0.603015C28.7753 0.98912 29 1.51279 29 2.05882V2.05882ZM8.52941 10.7059H4.26471V23.8824H8.52941V10.7059ZM8.91323 6.17647C8.91548 5.865 8.85417 5.55616 8.73279 5.26757C8.61141 4.97899 8.43235 4.71631 8.20583 4.49454C7.97931 4.27277 7.70976 4.09625 7.41258 3.97506C7.11541 3.85388 6.79641 3.79039 6.47382 3.78824H6.39706C5.74104 3.78824 5.11189 4.03985 4.64801 4.48773C4.18413 4.93561 3.92353 5.54307 3.92353 6.17647C3.92353 6.80987 4.18413 7.41733 4.64801 7.86521C5.11189 8.31309 5.74104 8.56471 6.39706 8.56471V8.56471C6.71967 8.57237 7.04069 8.51858 7.34176 8.40642C7.64284 8.29425 7.91807 8.12591 8.15174 7.91101C8.38541 7.6961 8.57293 7.43885 8.70359 7.15395C8.83425 6.86905 8.90549 6.56208 8.91323 6.25059V6.17647ZM24.7353 15.8776C24.7353 11.9165 22.1253 10.3765 19.5324 10.3765C18.6834 10.3354 17.8381 10.51 17.0808 10.8828C16.3235 11.2556 15.6807 11.8136 15.2165 12.5012H15.0971V10.7059H11.0882V23.8824H15.3529V16.8741C15.2913 16.1564 15.5255 15.4441 16.0046 14.8921C16.4837 14.34 17.169 13.9928 17.9118 13.9259H18.0738C19.43 13.9259 20.4365 14.7494 20.4365 16.8247V23.8824H24.7012L24.7353 15.8776Z" fill="#FFFBFB"/>
</svg>
