<svg width="23" height="20" viewBox="0 0 23 29" fill="none" xmlns="http://www.w3.org/2000/svg">
<path fill-rule="evenodd" clip-rule="evenodd" d="M2.11679 10.7633C2.11679 8.17052 3.15497 6.19673 4.81952 4.85931C6.49751 3.51108 8.84993 2.78158 11.4985 2.78158C14.1458 2.78158 16.4984 3.51745 18.1769 4.86935C19.8424 6.21079 20.8801 8.18512 20.8801 10.7633C20.8801 14.5342 18.5095 18.3679 16.0402 21.3194C14.8165 22.782 13.5914 24.0014 12.6717 24.8552C12.2122 25.2818 11.8299 25.6163 11.5634 25.8434L11.4985 25.8986L11.4335 25.8434C11.167 25.6163 10.7847 25.2818 10.3252 24.8552C9.40555 24.0014 8.18037 22.782 6.9567 21.3194C4.48742 18.3679 2.11679 14.5342 2.11679 10.7633ZM11.1506 27.0604C11.1508 27.0605 11.151 27.0606 11.4985 26.6235L11.151 27.0606C11.3544 27.2224 11.6425 27.2224 11.8459 27.0606L11.4985 26.6235C11.8459 27.0606 11.8461 27.0605 11.8463 27.0604L11.8468 27.0599L11.8486 27.0585L11.8548 27.0535L11.8779 27.035C11.8979 27.0188 11.927 26.9952 11.9646 26.9643C12.0398 26.9025 12.1492 26.8115 12.2877 26.6935C12.5648 26.4573 12.9591 26.1123 13.4315 25.6737C14.3756 24.7972 15.6354 23.5436 16.8968 22.036C19.3975 19.0469 21.9969 14.9504 21.9969 10.7633C21.9969 7.85142 20.8095 5.55569 18.8774 3.99959C16.9583 2.45395 14.3408 1.66479 11.4985 1.66479C8.65723 1.66479 6.03962 2.44638 4.12002 3.98872C2.18697 5.54188 1 7.83814 1 10.7633C1 14.9504 3.5994 19.0469 6.10015 22.036C7.36149 23.5436 8.62132 24.7972 9.56539 25.6737C10.0378 26.1123 10.4321 26.4573 10.7092 26.6935C10.8477 26.8115 10.9571 26.9025 11.0323 26.9643C11.0699 26.9952 11.099 27.0188 11.119 27.035L11.1421 27.0535L11.1483 27.0585L11.1501 27.0599L11.1506 27.0604ZM8.16223 11.2134C8.16223 9.57696 9.73696 8.11178 11.8639 8.11178C13.9908 8.11178 15.5655 9.57696 15.5655 11.2134C15.5655 12.8499 13.9908 14.3151 11.8639 14.3151C9.73696 14.3151 8.16223 12.8499 8.16223 11.2134ZM11.8639 6.99499C9.28526 6.99499 7.04544 8.80713 7.04544 11.2134C7.04544 13.6197 9.28526 15.4319 11.8639 15.4319C14.4425 15.4319 16.6823 13.6197 16.6823 11.2134C16.6823 8.80713 14.4425 6.99499 11.8639 6.99499Z" fill="#FCF6F6"/>
<path d="M4.81952 4.85931L5.44586 5.63886V5.63886L4.81952 4.85931ZM18.1769 4.86935L17.5496 5.64816V5.64816L18.1769 4.86935ZM16.0402 21.3194L16.8072 21.961L16.0402 21.3194ZM12.6717 24.8552L11.9913 24.1224H11.9913L12.6717 24.8552ZM11.5634 25.8434L12.2108 26.6056L12.212 26.6046L11.5634 25.8434ZM11.4985 25.8986L10.851 26.6607L11.4984 27.2107L12.1459 26.6607L11.4985 25.8986ZM11.4335 25.8434L10.7849 26.6046L10.7861 26.6056L11.4335 25.8434ZM10.3252 24.8552L11.0056 24.1224L10.3252 24.8552ZM6.9567 21.3194L6.18972 21.961H6.18972L6.9567 21.3194ZM11.4985 26.6235L12.2812 26.0012L11.4985 25.0166L10.7157 26.0012L11.4985 26.6235ZM11.1506 27.0604L10.5273 27.8423L10.529 27.8437L11.1506 27.0604ZM11.151 27.0606L10.3682 26.4383L9.74589 27.2211L10.5287 27.8434L11.151 27.0606ZM11.8459 27.0606L12.4682 27.8434L13.251 27.2211L12.6287 26.4383L11.8459 27.0606ZM11.8463 27.0604L12.4679 27.8437L12.4696 27.8423L11.8463 27.0604ZM11.8468 27.0599L12.4702 27.8419L12.4703 27.8418L11.8468 27.0599ZM11.8486 27.0585L12.4721 27.8404L12.4732 27.8395L11.8486 27.0585ZM11.8548 27.0535L12.4795 27.8345L12.4819 27.8325L11.8548 27.0535ZM11.8779 27.035L12.5049 27.814L12.5063 27.8128L11.8779 27.035ZM11.9646 26.9643L11.3297 26.1916L11.3297 26.1917L11.9646 26.9643ZM12.2877 26.6935L12.9363 27.4546L12.9364 27.4546L12.2877 26.6935ZM13.4315 25.6737L14.1119 26.4065L13.4315 25.6737ZM16.8968 22.036L17.6637 22.6776L16.8968 22.036ZM18.8774 3.99959L19.5047 3.22078V3.22078L18.8774 3.99959ZM4.12002 3.98872L4.74637 4.76827V4.76827L4.12002 3.98872ZM6.10015 22.036L5.33316 22.6776H5.33317L6.10015 22.036ZM9.56539 25.6737L10.2458 24.9408V24.9408L9.56539 25.6737ZM10.7092 26.6935L10.0606 27.4546L10.0606 27.4546L10.7092 26.6935ZM11.0323 26.9643L11.6672 26.1917L11.6672 26.1916L11.0323 26.9643ZM11.119 27.035L10.4906 27.8128L10.492 27.814L11.119 27.035ZM11.1421 27.0535L10.515 27.8325L10.5175 27.8345L11.1421 27.0535ZM11.1483 27.0585L10.5237 27.8395L10.5248 27.8404L11.1483 27.0585ZM11.1501 27.0599L10.5266 27.8418L10.5267 27.8419L11.1501 27.0599ZM4.19317 4.07977C2.28823 5.61034 1.11679 7.87287 1.11679 10.7633H3.11679C3.11679 8.46818 4.02172 6.78312 5.44586 5.63886L4.19317 4.07977ZM11.4985 1.78158C8.67727 1.78158 6.08743 2.55778 4.19317 4.07977L5.44586 5.63886C6.9076 4.46439 9.02259 3.78158 11.4985 3.78158V1.78158ZM18.8041 4.09054C16.9103 2.56522 14.3206 1.78158 11.4985 1.78158V3.78158C13.9711 3.78158 16.0864 4.46968 17.5496 5.64816L18.8041 4.09054ZM21.8801 10.7633C21.8801 7.8863 20.7083 5.62418 18.8041 4.09054L17.5496 5.64816C18.9765 6.79739 19.8801 8.48394 19.8801 10.7633H21.8801ZM16.8072 21.961C19.3046 18.9759 21.8801 14.9069 21.8801 10.7633H19.8801C19.8801 14.1615 17.7144 17.7598 15.2732 20.6777L16.8072 21.961ZM13.3521 25.5881C14.2936 24.714 15.5498 23.464 16.8072 21.961L15.2732 20.6777C14.0833 22.1 12.8891 23.2888 11.9913 24.1224L13.3521 25.5881ZM12.212 26.6046C12.488 26.3694 12.881 26.0254 13.3521 25.5881L11.9913 24.1224C11.5434 24.5383 11.1718 24.8633 10.9148 25.0823L12.212 26.6046ZM12.1459 26.6607L12.2108 26.6056L10.916 25.0813L10.851 25.1365L12.1459 26.6607ZM10.7861 26.6056L10.851 26.6607L12.1459 25.1365L12.0809 25.0813L10.7861 26.6056ZM9.64485 25.5881C10.1159 26.0254 10.5089 26.3694 10.7849 26.6046L12.0821 25.0823C11.8251 24.8633 11.4536 24.5383 11.0056 24.1224L9.64485 25.5881ZM6.18972 21.961C7.44713 23.464 8.70333 24.714 9.64485 25.5881L11.0056 24.1224C10.1078 23.2888 8.91361 22.1 7.72368 20.6777L6.18972 21.961ZM1.11679 10.7633C1.11679 14.9069 3.69232 18.9759 6.18972 21.961L7.72368 20.6777C5.28253 17.7598 3.11679 14.1615 3.11679 10.7633H1.11679ZM10.7157 26.0012C10.5419 26.2199 10.4553 26.3287 10.4122 26.3828C10.3902 26.4104 10.3807 26.4222 10.377 26.4269C10.3734 26.4314 10.3779 26.4257 10.3842 26.4181C10.3863 26.4156 10.3909 26.4102 10.3968 26.4033C10.4008 26.3988 10.4155 26.382 10.4355 26.3614C10.4455 26.3512 10.4658 26.3308 10.4932 26.3069C10.5139 26.2888 10.5759 26.2355 10.667 26.1851C10.7523 26.138 10.9785 26.0284 11.2835 26.0692C11.4377 26.0899 11.5614 26.1429 11.6504 26.1942C11.6918 26.2181 11.7236 26.2404 11.7428 26.2546C11.7503 26.2601 11.7613 26.2685 11.765 26.2714C11.7687 26.2742 11.7723 26.2771 11.7723 26.2771L10.529 27.8437C10.529 27.8437 10.5326 27.8465 10.5363 27.8494C10.5399 27.8522 10.551 27.8607 10.5585 27.8662C10.5777 27.8803 10.6095 27.9027 10.6509 27.9266C10.7399 27.9779 10.8636 28.0309 11.0178 28.0515C11.3228 28.0924 11.549 27.9828 11.6343 27.9356C11.7255 27.8853 11.7875 27.8319 11.8082 27.8138C11.8357 27.7898 11.856 27.7694 11.866 27.7592C11.8862 27.7385 11.901 27.7215 11.9051 27.7168C11.9113 27.7097 11.9161 27.704 11.9185 27.7011C11.9263 27.6917 11.9335 27.6827 11.9354 27.6804C11.9426 27.6715 11.9549 27.6561 11.9764 27.6291C12.0203 27.574 12.1075 27.4643 12.2812 27.2458L10.7157 26.0012ZM11.9337 27.6829L12.2812 27.2458L10.7157 26.0012L10.3682 26.4383L11.9337 27.6829ZM11.2236 26.2779C11.3845 26.15 11.6124 26.15 11.7733 26.2779L10.5287 27.8434C11.0964 28.2948 11.9005 28.2948 12.4682 27.8434L11.2236 26.2779ZM10.7157 27.2458L11.0632 27.6829L12.6287 26.4383L12.2812 26.0012L10.7157 27.2458ZM11.2246 26.2771C11.2246 26.2771 11.2282 26.2742 11.2319 26.2714C11.2356 26.2685 11.2466 26.2601 11.2541 26.2546C11.2733 26.2404 11.3051 26.2181 11.3465 26.1942C11.4355 26.1429 11.5593 26.0899 11.7134 26.0692C12.0184 26.0284 12.2446 26.138 12.3299 26.1851C12.421 26.2355 12.483 26.2888 12.5037 26.3069C12.5311 26.3308 12.5514 26.3512 12.5614 26.3614C12.5814 26.382 12.5961 26.3988 12.6001 26.4033C12.606 26.4102 12.6106 26.4156 12.6127 26.4181C12.619 26.4257 12.6235 26.4314 12.6199 26.4269C12.6162 26.4222 12.6067 26.4104 12.5847 26.3828C12.5416 26.3287 12.455 26.2199 12.2812 26.0012L10.7157 27.2458C10.8894 27.4643 10.9766 27.574 11.0205 27.6291C11.042 27.6561 11.0543 27.6715 11.0615 27.6804C11.0634 27.6827 11.0706 27.6917 11.0784 27.7011C11.0808 27.704 11.0856 27.7097 11.0918 27.7168C11.0959 27.7215 11.1107 27.7385 11.1309 27.7592C11.1409 27.7694 11.1612 27.7898 11.1887 27.8138C11.2094 27.8319 11.2714 27.8853 11.3626 27.9356C11.4479 27.9828 11.6741 28.0924 11.9791 28.0515C12.1333 28.0309 12.257 27.9779 12.346 27.9266C12.3874 27.9027 12.4192 27.8803 12.4384 27.8662C12.4459 27.8607 12.457 27.8522 12.4606 27.8494C12.4643 27.8465 12.4679 27.8437 12.4679 27.8437L11.2246 26.2771ZM11.2234 26.278L11.2229 26.2785L12.4696 27.8423L12.4702 27.8419L11.2234 26.278ZM11.2251 26.2767L11.2233 26.2781L12.4703 27.8418L12.4721 27.8404L11.2251 26.2767ZM11.2302 26.2726L11.224 26.2776L12.4732 27.8395L12.4794 27.8345L11.2302 26.2726ZM11.2508 26.256L11.2278 26.2745L12.4819 27.8325L12.5049 27.814L11.2508 26.256ZM11.3297 26.1917C11.2943 26.2208 11.2673 26.2427 11.2494 26.2571L12.5063 27.8128C12.5284 27.795 12.5596 27.7696 12.5994 27.7369L11.3297 26.1917ZM11.6391 25.9323C11.5053 26.0463 11.4006 26.1334 11.3297 26.1916L12.5994 27.7369C12.679 27.6715 12.793 27.5767 12.9363 27.4546L11.6391 25.9323ZM12.7511 24.9408C12.2903 25.3687 11.9067 25.7043 11.6391 25.9323L12.9364 27.4546C13.223 27.2103 13.6279 26.8559 14.1119 26.4065L12.7511 24.9408ZM16.1298 21.3943C14.9022 22.8616 13.6734 24.0846 12.7511 24.9408L14.1119 26.4065C15.0778 25.5098 16.3687 24.2256 17.6637 22.6776L16.1298 21.3943ZM20.9969 10.7633C20.9969 14.5778 18.6023 18.4389 16.1298 21.3943L17.6637 22.6776C20.1927 19.6548 22.9969 15.323 22.9969 10.7633H20.9969ZM18.2501 4.7784C19.9435 6.14227 20.9969 8.1502 20.9969 10.7633H22.9969C22.9969 7.55265 21.6754 4.96912 19.5047 3.22078L18.2501 4.7784ZM11.4985 2.66479C14.1663 2.66479 16.5465 3.40629 18.2501 4.7784L19.5047 3.22078C17.3701 1.50161 14.5154 0.664795 11.4985 0.664795V2.66479ZM4.74637 4.76827C6.44956 3.3998 8.82967 2.66479 11.4985 2.66479V0.664795C8.4848 0.664795 5.62967 1.49296 3.49368 3.20918L4.74637 4.76827ZM2 10.7633C2 8.13574 3.05377 6.12823 4.74637 4.76827L3.49368 3.20918C1.32018 4.95553 0 7.54055 0 10.7633H2ZM6.86713 21.3943C4.39461 18.4389 2 14.5778 2 10.7633H0C0 15.323 2.80418 19.6548 5.33316 22.6776L6.86713 21.3943ZM10.2458 24.9408C9.32354 24.0846 8.09473 22.8616 6.86713 21.3943L5.33317 22.6776C6.62825 24.2256 7.9191 25.5098 8.885 26.4065L10.2458 24.9408ZM11.3578 25.9323C11.0902 25.7043 10.7066 25.3687 10.2458 24.9408L8.885 26.4065C9.36896 26.8559 9.77395 27.2103 10.0606 27.4546L11.3578 25.9323ZM11.6672 26.1916C11.5963 26.1334 11.4916 26.0463 11.3578 25.9323L10.0606 27.4546C10.2039 27.5767 10.3179 27.6715 10.3975 27.7369L11.6672 26.1916ZM11.7475 26.2571C11.7296 26.2427 11.7026 26.2208 11.6672 26.1917L10.3975 27.7369C10.4373 27.7696 10.4685 27.795 10.4906 27.8128L11.7475 26.2571ZM11.7691 26.2745L11.7461 26.256L10.492 27.814L10.515 27.8325L11.7691 26.2745ZM11.7729 26.2776L11.7667 26.2726L10.5175 27.8345L10.5237 27.8395L11.7729 26.2776ZM11.7736 26.2781L11.7718 26.2767L10.5248 27.8404L10.5266 27.8418L11.7736 26.2781ZM11.774 26.2785L11.7735 26.278L10.5267 27.8419L10.5273 27.8423L11.774 26.2785ZM11.8639 7.11178C9.32512 7.11178 7.16223 8.89399 7.16223 11.2134H9.16223C9.16223 10.2599 10.1488 9.11178 11.8639 9.11178V7.11178ZM16.5655 11.2134C16.5655 8.89399 14.4026 7.11178 11.8639 7.11178V9.11178C13.5789 9.11178 14.5655 10.2599 14.5655 11.2134H16.5655ZM11.8639 15.3151C14.4026 15.3151 16.5655 13.5329 16.5655 11.2134H14.5655C14.5655 12.1669 13.5789 13.3151 11.8639 13.3151V15.3151ZM7.16223 11.2134C7.16223 13.5329 9.32512 15.3151 11.8639 15.3151V13.3151C10.1488 13.3151 9.16223 12.1669 9.16223 11.2134H7.16223ZM8.04544 11.2134C8.04544 9.50122 9.68417 7.99499 11.8639 7.99499V5.99499C8.88636 5.99499 6.04544 8.11304 6.04544 11.2134H8.04544ZM11.8639 14.4319C9.68417 14.4319 8.04544 12.9257 8.04544 11.2134H6.04544C6.04544 14.3138 8.88636 16.4319 11.8639 16.4319V14.4319ZM15.6823 11.2134C15.6823 12.9257 14.0435 14.4319 11.8639 14.4319V16.4319C14.8414 16.4319 17.6823 14.3138 17.6823 11.2134H15.6823ZM11.8639 7.99499C14.0435 7.99499 15.6823 9.50122 15.6823 11.2134H17.6823C17.6823 8.11303 14.8414 5.99499 11.8639 5.99499V7.99499Z" fill="#FFFF"/>
</svg>
