<svg width="25" height="25" viewBox="0 0 25 25" fill="none" xmlns="http://www.w3.org/2000/svg">
<path d="M2 2V0.59375C1.22335 0.59375 0.59375 1.22335 0.59375 2L2 2ZM24.6722 2H26.0785C26.0785 1.22335 25.4489 0.59375 24.6722 0.59375V2ZM24.6722 23V24.4062C25.4489 24.4062 26.0785 23.7766 26.0785 23H24.6722ZM2 23H0.59375C0.59375 23.7766 1.22335 24.4062 2 24.4062L2 23ZM2.77593 3.8272C2.12821 3.39866 1.25573 3.57635 0.827195 4.22407C0.398661 4.87179 0.576347 5.74427 1.22407 6.1728L2.77593 3.8272ZM13.3361 12.5L12.5602 13.6728C13.0306 13.9841 13.6416 13.9841 14.112 13.6728L13.3361 12.5ZM25.4482 6.1728C26.0959 5.74427 26.2736 4.87179 25.845 4.22407C25.4165 3.57635 24.544 3.39866 23.8963 3.8272L25.4482 6.1728ZM2 3.40625H24.6722V0.59375H2V3.40625ZM23.266 2V23H26.0785V2H23.266ZM24.6722 21.5938H2V24.4062H24.6722V21.5938ZM3.40625 23V2H0.59375V23H3.40625ZM1.22407 6.1728L12.5602 13.6728L14.112 11.3272L2.77593 3.8272L1.22407 6.1728ZM14.112 13.6728L25.4482 6.1728L23.8963 3.8272L12.5602 11.3272L14.112 13.6728Z" fill="#FFFF"/>
</svg>
