<svg width="15" height="10" viewBox="0 0 15 10" fill="none" xmlns="http://www.w3.org/2000/svg">
<path d="M0 10L1.06344 7.43456C0.41002 6.68197 0.0668739 5.82841 0.0685519 4.95982C0.0609845 2.22275 3.41023 0 7.52647 0C9.52426 0 11.4001 0.514032 12.8125 1.4517C13.5087 1.91133 14.0605 2.45808 14.436 3.06027C14.8115 3.66246 15.0032 4.30811 15 4.95982C15 7.69158 11.6507 9.91433 7.53403 9.91433C6.28096 9.91433 5.05815 9.70753 3.96444 9.3096L0 10ZM4.13938 8.41743L4.36729 8.50812C5.32392 8.88379 6.41491 9.08222 7.52647 9.08272C10.9443 9.08272 13.7318 7.23309 13.7318 4.96455C13.7318 3.86588 13.0863 2.82777 11.9165 2.0517C11.3412 1.66776 10.6571 1.36318 9.90369 1.1555C9.15024 0.947827 8.34231 0.841161 7.52647 0.841654C4.1011 0.84195 1.31451 2.69158 1.31451 4.96012C1.31451 5.73619 1.64124 6.49749 2.26399 7.15273L2.40822 7.30901L1.7779 8.83102L4.13982 8.41772L4.13938 8.41743Z" fill="#FFF8F8"/>
<path fill-rule="evenodd" clip-rule="evenodd" d="M5.66577 2.88331C5.52911 2.67651 5.37732 2.67149 5.24823 2.67149C5.13427 2.66647 5.0123 2.66647 4.88321 2.66647C4.76213 2.66647 4.55692 2.6966 4.38243 2.82275C4.20749 2.9486 3.7294 3.24609 3.7294 3.85583C3.7294 4.46588 4.39756 5.05554 4.48881 5.13619C4.57962 5.21684 5.77973 6.50694 7.6787 7.0062C9.25807 7.4195 9.57724 7.33885 9.91911 7.31344C10.2605 7.28833 11.0204 7.01625 11.1797 6.72378C11.3315 6.43663 11.3315 6.18464 11.2861 6.13412C11.2407 6.0839 11.1112 6.05347 10.9291 5.98789C10.7391 5.92762 9.82785 5.62511 9.65336 5.58464C9.47842 5.54446 9.35689 5.52437 9.23537 5.6452C9.11384 5.77134 8.75684 6.04845 8.64333 6.1291C8.53649 6.20975 8.42298 6.21979 8.24047 6.15923C8.05084 6.09897 7.45079 5.9678 6.73678 5.54446C6.18214 5.21654 5.81 4.80857 5.69604 4.68774C5.5901 4.5616 5.68091 4.49601 5.77973 4.43545C5.86341 4.38021 5.9698 4.28951 6.06106 4.21891C6.15187 4.14801 6.18214 4.09276 6.25069 4.01211C6.31123 3.93146 6.28096 3.85583 6.23555 3.79557C6.1897 3.74003 5.83314 3.12998 5.66577 2.88301V2.88331Z" fill="#FFF8F8"/>
</svg>
