<svg width="19" height="14" viewBox="0 0 19 14" fill="none" xmlns="http://www.w3.org/2000/svg">
<path fill-rule="evenodd" clip-rule="evenodd" d="M5.07765 2.15635L7.73523 3.93184C8.06457 4.15202 8.0648 4.49702 7.73575 4.71737L6.45107 5.57768C7.25773 7.13044 9.06169 8.37267 11.348 8.96007L11.604 9.02263L12.8217 8.20714C13.1638 7.9781 13.7339 7.96818 14.0953 8.185L16.7528 9.9605C17.0822 10.1807 17.0824 10.5257 16.7534 10.746L16.0925 11.1886C14.8855 11.9969 13.0473 12.2247 11.4329 11.7661C9.15076 11.1178 7.30931 10.3254 5.90851 9.38887C4.5077 8.45237 3.32189 7.22092 2.35106 5.69449C1.69173 4.65784 1.9777 3.4827 3.06952 2.67521L3.21019 2.57623L3.80412 2.17849C4.14615 1.94944 4.71633 1.93953 5.07765 2.15635Z" stroke="white" stroke-width="2.8125" stroke-linecap="round" stroke-linejoin="round"/>
</svg>
