<svg width="27" height="29" viewBox="0 0 27 29" fill="none" xmlns="http://www.w3.org/2000/svg">
<path fill-rule="evenodd" clip-rule="evenodd" d="M6.71907 2.39087L10.794 6.82961C11.299 7.38005 11.2994 8.24255 10.7948 8.79343L8.82498 10.9442C10.0618 14.8261 12.8279 17.9317 16.3336 19.4002L16.7261 19.5566L18.5933 17.5179C19.1178 16.9452 19.9921 16.9205 20.5461 17.4625L24.621 21.9012C25.126 22.4517 25.1264 23.3142 24.6218 23.8651L23.6085 24.9715C21.7577 26.9922 18.9392 27.5618 16.4637 26.4152C12.9645 24.7944 10.1409 22.8134 7.99304 20.4722C5.84514 18.1309 4.02689 15.0523 2.53829 11.2362C1.52731 8.64461 1.96581 5.70674 3.63993 3.68803L3.85562 3.44057L4.76632 2.44622C5.29077 1.8736 6.16504 1.84882 6.71907 2.39087Z" stroke="#FCF8F8" stroke-width="2.8125" stroke-linecap="round" stroke-linejoin="round"/>
</svg>
