<svg width="29" height="23c:\Users\iamar\Downloads\Vector (19).svg" viewBox="0 0 29 28" fill="none" xmlns="http://www.w3.org/2000/svg">
<path d="M29 3.31527C27.9335 3.87667 26.7879 4.25599 25.5835 4.42744C26.8122 3.55348 27.7547 2.16668 28.1992 0.515877C27.0497 1.32611 25.7764 1.91482 24.4213 2.23041C23.3356 0.858784 21.7902 0 20.0788 0C16.7938 0 14.1296 3.16506 14.1296 7.07055C14.1296 7.62285 14.1833 8.15997 14.2829 8.67888C9.3363 8.38301 4.95424 5.56844 2.01925 1.29273C1.50837 2.33966 1.21461 3.55348 1.21461 4.84621C1.21461 7.29815 2.26574 9.46332 3.86096 10.7302C2.88518 10.6923 1.96816 10.3752 1.16608 9.84567V9.93671C1.16608 13.3612 3.21598 16.2183 5.93896 16.8677C5.4383 17.0285 4.91337 17.1135 4.37184 17.1135C3.98868 17.1135 3.61446 17.071 3.25174 16.9891C4.00912 19.796 6.20589 21.8413 8.81009 21.896C6.77297 23.7926 4.20708 24.9229 1.42024 24.9229C0.940016 24.9229 0.466176 24.8896 0 24.8243C2.63358 26.8317 5.76015 28 9.11918 28C20.0647 28 26.0484 17.2303 26.0484 7.88989C26.0484 7.58643 26.042 7.27994 26.0305 6.97648C27.1928 5.97811 28.2018 4.73545 28.9974 3.31982L29 3.31527Z" fill="#FFFBFB"/>
</svg>
