<svg width="25" height="30" viewBox="0 0 25 30" fill="none" xmlns="http://www.w3.org/2000/svg">
<path d="M0 30L1.77241 22.3037C0.683366 20.0459 0.111456 17.4852 0.114253 14.8795C0.101641 6.66824 5.68372 0 12.5441 0C15.8738 0 19.0002 1.5421 21.3542 4.3551C22.5145 5.73399 23.4342 7.37424 24.06 9.18081C24.6858 10.9874 25.0053 12.9243 24.9999 14.8795C24.9999 23.0747 19.4178 29.743 12.5567 29.743C10.4683 29.743 8.43025 29.1226 6.6074 27.9288L0 30ZM6.89896 25.2523L7.27882 25.5244C8.8732 26.6514 10.6915 27.2466 12.5441 27.2482C18.2404 27.2482 22.8863 21.6993 22.8863 14.8936C22.8863 11.5976 21.8105 8.48331 19.8608 6.1551C18.902 5.00329 17.7619 4.08955 16.5061 3.46651C15.2504 2.84348 13.9039 2.52348 12.5441 2.52496C6.83516 2.52585 2.19084 8.07474 2.19084 14.8804C2.19084 17.2086 2.7354 19.4925 3.77332 21.4582L4.0137 21.927L2.96316 26.4931L6.89971 25.2532L6.89896 25.2523Z" fill="#FFF8F8"/>
<path fill-rule="evenodd" clip-rule="evenodd" d="M9.44295 8.64993C9.21519 8.02954 8.9622 8.01448 8.74705 8.01448C8.55712 7.99941 8.35384 7.99941 8.13869 7.99941C7.93689 7.99941 7.59487 8.08981 7.30404 8.46824C7.01248 8.84579 6.21567 9.73826 6.21567 11.5675C6.21567 13.3976 7.32927 15.1666 7.48136 15.4086C7.63271 15.6505 9.63288 19.5208 12.7978 21.0186C15.4301 22.2585 15.9621 22.0165 16.5318 21.9403C17.1009 21.865 18.3673 21.0487 18.6329 20.1713C18.8859 19.3099 18.8859 18.5539 18.8102 18.4024C18.7346 18.2517 18.5187 18.1604 18.2152 17.9637C17.8984 17.7829 16.3798 16.8753 16.0889 16.7539C15.7974 16.6334 15.5948 16.5731 15.3923 16.9356C15.1897 17.314 14.5947 18.1453 14.4055 18.3873C14.2275 18.6292 14.0383 18.6594 13.7341 18.4777C13.4181 18.2969 12.418 17.9034 11.228 16.6334C10.3036 15.6496 9.68333 14.4257 9.4934 14.0632C9.31683 13.6848 9.46818 13.488 9.63288 13.3064C9.77236 13.1406 9.94967 12.8685 10.1018 12.6567C10.2531 12.444 10.3036 12.2783 10.4178 12.0363C10.5187 11.7944 10.4683 11.5675 10.3926 11.3867C10.3162 11.2201 9.72191 9.38996 9.44295 8.64904V8.64993Z" fill="#FFF8F8"/>
</svg>
