<svg width="29" height="28" viewBox="0 0 29 28" fill="none" xmlns="http://www.w3.org/2000/svg">
<path fill-rule="evenodd" clip-rule="evenodd" d="M25.8297 0.836312C27.0782 1.29727 28.0595 2.65052 28.3936 4.37254C28.9976 7.49059 29 14 29 14C29 14 29 20.5094 28.3936 23.6275C28.0595 25.3495 27.0782 26.7028 25.8297 27.1636C23.5691 28 14.4999 28 14.4999 28C14.4999 28 5.43093 28 3.17023 27.1636C1.92172 26.7028 0.940566 25.3495 0.606355 23.6275C1.81505e-07 20.5094 0 14 0 14C0 14 1.81505e-07 7.49059 0.606355 4.37254C0.940566 2.65052 1.92172 1.29727 3.17023 0.836312C5.43093 2.5034e-07 14.4999 0 14.4999 0C14.4999 0 23.5691 2.5034e-07 25.8297 0.836312ZM19.1313 14.0006L11.5972 19.9996V8.00146L19.1313 14.0006Z" fill="#FEF9F9"/>
</svg>
